<svg width="106" height="285" viewBox="0 0 106 285" fill="none" xmlns="http://www.w3.org/2000/svg">
<path d="M53 13.6805C59.0446 20.3179 64.5482 27.4893 69.3861 35.0362C74.8182 43.5109 79.4697 52.5476 83.2102 61.8955C86.9508 71.2433 89.8168 80.9948 91.7298 90.878C93.6596 100.848 94.6379 111.055 94.6379 121.216V272.891H11.3635V121.216C11.3635 111.055 12.3418 100.848 14.2716 90.878C16.1846 80.9948 19.0506 71.2447 22.7912 61.8955C26.5317 52.5476 31.1818 43.5109 36.6153 35.0362C41.4532 27.4879 46.9568 20.3179 53.0014 13.6805M53 8.74591C24.1128 39.0654 8 79.3383 8 121.216V276.254H98V121.216C98 79.3383 81.8872 39.0654 53 8.74591ZM86.7882 265.044H19.2118V121.216C19.2118 101.808 22.8669 82.8307 30.0775 64.812C35.7002 50.7608 43.3382 37.6976 52.7828 25.9841L53.0014 25.7136L53.22 25.9841C62.6646 37.6976 70.3026 50.7608 75.9254 64.812C83.1345 82.8307 86.791 101.808 86.791 121.216V265.042L86.7882 265.044ZM19.7724 264.483H86.2276V121.217C86.2276 101.881 82.5852 82.9737 75.4026 65.0208C69.8443 51.1308 62.3086 38.2077 53 26.6077C43.6914 38.2077 36.1557 51.1294 30.5974 65.0208C23.4148 82.9737 19.7724 101.881 19.7724 121.217V264.483ZM53 214.669L35.7296 197.399L53 180.128L70.2704 197.399L53 214.669ZM36.7205 197.399L53 213.678L69.2795 197.399L53 181.119L36.7205 197.399Z" fill="#6C7684"/>
</svg>
